<svg width="154" height="151" viewBox="0 0 154 151" fill="none" xmlns="http://www.w3.org/2000/svg">
<path d="M1.54639 149.381V91.5464M151.546 1.54639H91.5464M91.5464 1.54639H77.9381C75.7113 60.433 26.0825 77.0103 1.54639 77.9381V91.5464M91.5464 1.54639C90.8247 30.4124 71.8144 88.8247 1.54639 91.5464M12.9897 149.381V49.4845H22.5773M22.5773 49.4845V61.8557H35.8763V49.4845M22.5773 49.4845H35.8763M22.5773 49.4845V25.0515H60V37.1134H47.9381M35.8763 49.4845H47.9381V37.1134M35.8763 49.4845V37.1134M47.9381 37.1134H35.8763M47.9381 37.1134V13.9175H151.546M35.8763 37.1134V13.9175H12.9897V37.1134H35.8763Z" stroke="url(#paint0_linear_1_33)" stroke-width="3.09278" stroke-linecap="round"/>
<defs>
<linearGradient id="paint0_linear_1_33" x1="76.5464" y1="1.54639" x2="76.5464" y2="149.381" gradientUnits="userSpaceOnUse">
<stop stop-color="#EBAE2C"/>
<stop offset="0.490385" stop-color="#AB1A19"/>
</linearGradient>
</defs>
</svg>
