<svg width="55" height="414" viewBox="0 0 55 414" fill="none" xmlns="http://www.w3.org/2000/svg">
<g opacity="0.3" filter="url(#filter0_ddddddd_1_4)">
<path d="M23.824 0.000144005H29.968V8.78414H23.824V0.000144005ZM6.63998 4.36814H47.68V15.7441H41.488V9.69614H12.496V15.7441H6.63998V4.36814ZM22.096 10.8481L28.192 12.0961C27.264 14.0481 26.272 16.0801 25.216 18.1921C24.192 20.2721 23.152 22.3521 22.096 24.4321C21.04 26.5121 20 28.4961 18.976 30.3841C17.984 32.2401 17.056 33.9201 16.192 35.4241L10.096 33.7921C11.024 32.3201 12 30.6561 13.024 28.8001C14.08 26.9121 15.136 24.9441 16.192 22.8961C17.28 20.8161 18.32 18.7521 19.312 16.7041C20.336 14.6241 21.264 12.6721 22.096 10.8481ZM34.24 21.8401L40.72 22.6561C39.696 26.3681 38.272 29.5201 36.448 32.1121C34.656 34.6721 32.48 36.8161 29.92 38.5441C27.392 40.2721 24.464 41.6481 21.136 42.6721C17.808 43.7281 14.08 44.5601 9.95198 45.1681C9.79198 44.6881 9.51998 44.1121 9.13598 43.4401C8.75198 42.8001 8.33598 42.1601 7.88798 41.5201C7.47198 40.8801 7.07198 40.3521 6.68798 39.9361C11.936 39.4241 16.448 38.5281 20.224 37.2481C24.032 35.9681 27.104 34.0961 29.44 31.6321C31.776 29.1681 33.376 25.9041 34.24 21.8401ZM5.63198 17.9521H48.496V23.3761H5.63198V17.9521ZM13.696 32.7841L17.872 28.7521C20.208 29.3921 22.688 30.1601 25.312 31.0561C27.968 31.9521 30.592 32.9281 33.184 33.9841C35.808 35.0081 38.272 36.0641 40.576 37.1521C42.912 38.2401 44.912 39.3121 46.576 40.3681L41.968 45.0721C40.464 44.0481 38.608 42.9601 36.4 41.8081C34.192 40.6881 31.792 39.5841 29.2 38.4961C26.608 37.3761 23.984 36.3201 21.328 35.3281C18.672 34.3361 16.128 33.4881 13.696 32.7841ZM32.464 107.28H44.752V112.8H32.464V107.28ZM5.43998 80.6881H23.008V86.3041H5.43998V80.6881ZM29.872 77.5681H47.344V115.824H41.584V83.1361H35.392V116.16H29.872V77.5681ZM21.616 80.6881H27.184C27.184 80.6881 27.184 80.8641 27.184 81.2161C27.184 81.5361 27.184 81.9041 27.184 82.3201C27.184 82.7361 27.168 83.0721 27.136 83.3281C27.04 88.4481 26.928 92.8161 26.8 96.4321C26.704 100.016 26.576 102.96 26.416 105.264C26.288 107.568 26.096 109.376 25.84 110.688C25.584 112 25.264 112.928 24.88 113.472C24.336 114.272 23.776 114.848 23.2 115.2C22.624 115.552 21.936 115.808 21.136 115.968C20.432 116.128 19.568 116.208 18.544 116.208C17.52 116.24 16.448 116.224 15.328 116.16C15.296 115.328 15.136 114.352 14.848 113.232C14.56 112.144 14.176 111.2 13.696 110.4C14.656 110.464 15.536 110.512 16.336 110.544C17.136 110.576 17.76 110.592 18.208 110.592C18.56 110.592 18.864 110.528 19.12 110.4C19.376 110.272 19.616 110.032 19.84 109.68C20.096 109.328 20.32 108.592 20.512 107.472C20.704 106.352 20.864 104.72 20.992 102.576C21.12 100.432 21.232 97.6801 21.328 94.3201C21.424 90.9281 21.52 86.8001 21.616 81.9361V80.6881ZM11.152 72.7681H16.816C16.816 77.5041 16.736 82.0321 16.576 86.3521C16.448 90.6401 16.128 94.6721 15.616 98.4481C15.104 102.224 14.256 105.696 13.072 108.864C11.92 112 10.304 114.768 8.22398 117.168C7.93598 116.688 7.55198 116.176 7.07198 115.632C6.59198 115.088 6.07998 114.576 5.53598 114.096C4.99198 113.616 4.47998 113.232 3.99998 112.944C5.50398 111.248 6.70398 109.344 7.59998 107.232C8.52798 105.088 9.23198 102.752 9.71198 100.224C10.224 97.6961 10.576 94.9921 10.768 92.1121C10.96 89.2001 11.072 86.1281 11.104 82.8961C11.136 79.6321 11.152 76.2561 11.152 72.7681ZM32.224 144.72H38.032V155.184H32.224V144.72ZM22.192 152.832H48.88V158.112H22.192V152.832ZM24.928 160.944L29.968 159.984C30.448 161.552 30.88 163.184 31.264 164.88C31.648 166.544 32 168.224 32.32 169.92C32.64 171.616 32.896 173.232 33.088 174.768C33.28 176.304 33.392 177.68 33.424 178.896L27.904 180.144C27.872 178.928 27.776 177.552 27.616 176.016C27.456 174.448 27.248 172.816 26.992 171.12C26.736 169.392 26.432 167.664 26.08 165.936C25.728 164.176 25.344 162.512 24.928 160.944ZM39.472 159.6L45.472 160.512C45.152 162.56 44.784 164.656 44.368 166.8C43.984 168.912 43.568 171.008 43.12 173.088C42.704 175.136 42.272 177.088 41.824 178.944C41.376 180.768 40.928 182.4 40.48 183.84L35.2 182.88C35.648 181.376 36.08 179.664 36.496 177.744C36.912 175.824 37.312 173.824 37.696 171.744C38.08 169.664 38.416 167.584 38.704 165.504C39.024 163.424 39.28 161.456 39.472 159.6ZM19.984 181.536H49.648V186.96H19.984V181.536ZM4.04798 168.432C5.58398 168.112 7.29598 167.744 9.18398 167.328C11.072 166.912 13.072 166.448 15.184 165.936C17.296 165.424 19.376 164.912 21.424 164.4L22.096 169.632C19.28 170.4 16.416 171.168 13.504 171.936C10.592 172.704 7.93598 173.376 5.53598 173.952L4.04798 168.432ZM5.10398 153.216H20.848V158.544H5.10398V153.216ZM10.912 144.048H16.528V183.072C16.528 184.48 16.368 185.568 16.048 186.336C15.76 187.104 15.2 187.712 14.368 188.16C13.568 188.576 12.56 188.848 11.344 188.976C10.16 189.136 8.71998 189.2 7.02398 189.168C6.95998 188.432 6.76798 187.568 6.44798 186.576C6.12798 185.584 5.79198 184.704 5.43998 183.936C6.39998 183.968 7.31198 184 8.17598 184.032C9.03998 184.032 9.63198 184.032 9.95198 184.032C10.592 184.032 10.912 183.712 10.912 183.072V144.048ZM9.90398 223.872H24.64V256.176H9.90398V251.136H19.456V228.864H9.90398V223.872ZM6.54398 223.872H11.776V259.728H6.54398V223.872ZM9.71198 236.688H21.952V241.68H9.71198V236.688ZM13.408 216.048L19.648 216.96C19.136 218.592 18.576 220.208 17.968 221.808C17.392 223.408 16.864 224.768 16.384 225.888L11.776 224.832C12 224 12.208 223.072 12.4 222.048C12.624 221.024 12.832 219.984 13.024 218.928C13.216 217.872 13.344 216.912 13.408 216.048ZM30.976 223.488H45.04V228.768H30.976V223.488ZM43.024 223.488H48.352C48.352 223.488 48.352 223.664 48.352 224.016C48.352 224.336 48.352 224.704 48.352 225.12C48.352 225.536 48.336 225.856 48.304 226.08C48.176 231.488 48.016 236.08 47.824 239.856C47.664 243.6 47.456 246.704 47.2 249.168C46.976 251.6 46.704 253.504 46.384 254.88C46.064 256.256 45.648 257.264 45.136 257.904C44.496 258.832 43.808 259.472 43.072 259.824C42.336 260.176 41.488 260.432 40.528 260.592C39.6 260.72 38.448 260.768 37.072 260.736C35.728 260.736 34.352 260.72 32.944 260.688C32.912 259.888 32.72 258.944 32.368 257.856C32.016 256.8 31.584 255.872 31.072 255.072C32.608 255.2 34.032 255.28 35.344 255.312C36.688 255.344 37.664 255.36 38.272 255.36C38.752 255.36 39.136 255.312 39.424 255.216C39.744 255.088 40.048 254.864 40.336 254.544C40.752 254.128 41.088 253.28 41.344 252C41.632 250.688 41.872 248.848 42.064 246.48C42.256 244.112 42.432 241.12 42.592 237.504C42.752 233.888 42.896 229.584 43.024 224.592V223.488ZM31.12 216.096L36.688 217.392C36.08 219.728 35.328 222.064 34.432 224.4C33.568 226.736 32.608 228.944 31.552 231.024C30.528 233.072 29.472 234.864 28.384 236.4C28.064 236.08 27.6 235.712 26.992 235.296C26.416 234.848 25.824 234.416 25.216 234C24.64 233.584 24.128 233.264 23.68 233.04C24.736 231.664 25.728 230.08 26.656 228.288C27.616 226.464 28.464 224.512 29.2 222.432C29.968 220.32 30.608 218.208 31.12 216.096ZM28.768 237.36L33.28 234.816C34.08 235.904 34.928 237.104 35.824 238.416C36.72 239.728 37.568 241.008 38.368 242.256C39.168 243.504 39.824 244.608 40.336 245.568L35.44 248.544C34.992 247.552 34.384 246.416 33.616 245.136C32.88 243.856 32.08 242.544 31.216 241.2C30.384 239.824 29.568 238.544 28.768 237.36ZM24.112 288H29.92V294.48H24.112V288ZM6.30398 290.784H47.728V298.224H42.352V295.248H11.488V298.224H6.30398V290.784ZM9.18398 296.88H25.216V300.144H9.18398V296.88ZM9.80798 301.584H24.832V304.464H9.80798V301.584ZM26.032 301.44H46.864V304.32H26.032V301.44ZM7.16798 306.336C9.47198 306.24 12.256 306.112 15.52 305.952C18.816 305.792 22.176 305.648 25.6 305.52L25.552 309.072C22.32 309.296 19.104 309.504 15.904 309.696C12.736 309.856 9.95198 310 7.55198 310.128L7.16798 306.336ZM15.088 298.224H19.84V307.2L15.088 307.584V298.224ZM29.536 295.152L33.424 295.776C32.848 297.024 32.192 298.192 31.456 299.28C30.72 300.368 29.792 301.408 28.672 302.4C28.288 301.984 27.776 301.568 27.136 301.152C26.528 300.704 25.968 300.368 25.456 300.144C26.416 299.408 27.232 298.592 27.904 297.696C28.576 296.8 29.12 295.952 29.536 295.152ZM30.928 297.216H43.888V300.096H29.248L30.928 297.216ZM33.856 298.416H38.608V307.824H33.856V298.416ZM27.376 304.704H31.36V306.672H41.248V304.704H45.472V309.552H27.376V304.704ZM17.248 318.048V319.488H37.504V318.048H17.248ZM17.248 322.32V323.808H37.504V322.32H17.248ZM17.248 313.824V315.216H37.504V313.824H17.248ZM11.68 310.8H43.36V326.832H11.68V310.8ZM29.104 328.56L32.848 325.44C34.64 325.888 36.48 326.384 38.368 326.928C40.288 327.44 42.096 327.968 43.792 328.512C45.52 329.024 46.992 329.488 48.208 329.904L43.216 333.216C42.16 332.768 40.88 332.272 39.376 331.728C37.872 331.216 36.24 330.688 34.48 330.144C32.72 329.6 30.928 329.072 29.104 328.56ZM20.464 325.392L24.976 328.512C23.632 329.184 22.048 329.824 20.224 330.432C18.4 331.04 16.496 331.568 14.512 332.016C12.56 332.464 10.672 332.832 8.84798 333.12C8.43198 332.576 7.88798 331.936 7.21598 331.2C6.54398 330.464 5.93598 329.84 5.39198 329.328C7.18398 329.072 9.03998 328.736 10.96 328.32C12.912 327.904 14.72 327.44 16.384 326.928C18.08 326.416 19.44 325.904 20.464 325.392ZM5.63198 362.928H48.544V367.68H5.63198V362.928ZM15.712 371.76H48.976V376.608H15.712V371.76ZM8.65598 379.632H15.04V384.24H8.65598V379.632ZM4.52798 387.072H14.8V391.776H4.52798V387.072ZM21.424 396.432H33.856V400.032H21.424V396.432ZM16.24 360.048H21.952V370.128H16.24V360.048ZM32.032 360.048H37.792V370.272H32.032V360.048ZM26.224 380.592H29.968V385.968H26.224V380.592ZM6.49598 372.336H10.624V385.2H6.49598V372.336ZM26.224 392.304H29.968V397.776H26.224V392.304ZM21.904 384.336H33.664V393.936H21.904V390.528H29.728V387.744H21.904V384.336ZM19.552 378.48H33.52V382.08H23.584V402.672H19.552V378.48ZM13.216 371.76H17.92V386.256C17.92 388.208 17.856 390.336 17.728 392.64C17.6 394.944 17.296 397.2 16.816 399.408C16.368 401.616 15.696 403.568 14.8 405.264C14.512 405.04 14.096 404.768 13.552 404.448C13.04 404.128 12.496 403.824 11.92 403.536C11.376 403.28 10.896 403.088 10.48 402.96C11.344 401.36 11.952 399.6 12.304 397.68C12.688 395.76 12.928 393.808 13.024 391.824C13.152 389.84 13.216 387.968 13.216 386.208V371.76ZM33.664 369.024H38.752C38.752 374.048 38.944 378.496 39.328 382.368C39.712 386.24 40.208 389.504 40.816 392.16C41.456 394.784 42.112 396.784 42.784 398.16C43.488 399.504 44.16 400.176 44.8 400.176C45.088 400.176 45.328 400 45.52 399.648C45.712 399.264 45.872 398.624 46 397.728C46.128 396.832 46.224 395.616 46.288 394.08C46.8 394.592 47.408 395.088 48.112 395.568C48.816 396.016 49.472 396.352 50.08 396.576C49.888 398.976 49.552 400.8 49.072 402.048C48.624 403.296 48.016 404.128 47.248 404.544C46.512 404.992 45.552 405.216 44.368 405.216C42.672 405.216 41.184 404.352 39.904 402.624C38.624 400.928 37.536 398.496 36.64 395.328C35.776 392.128 35.088 388.32 34.576 383.904C34.096 379.456 33.792 374.496 33.664 369.024ZM40.624 369.792L44.032 367.296C44.768 367.744 45.536 368.304 46.336 368.976C47.136 369.616 47.744 370.208 48.16 370.752L44.56 373.488C44.208 372.912 43.648 372.288 42.88 371.616C42.112 370.912 41.36 370.304 40.624 369.792ZM42.448 378.384L47.536 379.2C46.32 384.96 44.528 390.048 42.16 394.464C39.824 398.88 36.864 402.496 33.28 405.312C33.024 404.992 32.64 404.608 32.128 404.16C31.648 403.744 31.12 403.312 30.544 402.864C30 402.416 29.536 402.08 29.152 401.856C32.704 399.424 35.568 396.192 37.744 392.16C39.92 388.128 41.488 383.536 42.448 378.384ZM6.78398 388.848H10.864V392.928C10.864 394.048 10.784 395.344 10.624 396.816C10.464 398.288 10.128 399.76 9.61598 401.232C9.10398 402.704 8.33598 404.016 7.31198 405.168C6.95998 404.784 6.44798 404.368 5.77598 403.92C5.10398 403.472 4.52798 403.12 4.04798 402.864C4.84798 401.872 5.43998 400.784 5.82398 399.6C6.23998 398.384 6.49598 397.184 6.59198 396C6.71998 394.784 6.78398 393.728 6.78398 392.832V388.848Z" fill="#FDFDFD"/>
</g>
<defs>
<filter id="filter0_ddddddd_1_4" x="0" y="0" width="54.08" height="413.312" filterUnits="userSpaceOnUse" color-interpolation-filters="sRGB">
<feFlood flood-opacity="0" result="BackgroundImageFix"/>
<feColorMatrix in="SourceAlpha" type="matrix" values="0 0 0 0 0 0 0 0 0 0 0 0 0 0 0 0 0 0 127 0" result="hardAlpha"/>
<feOffset dy="4"/>
<feGaussianBlur stdDeviation="2"/>
<feComposite in2="hardAlpha" operator="out"/>
<feColorMatrix type="matrix" values="0 0 0 0 0 0 0 0 0 0 0 0 0 0 0 0 0 0 0.25 0"/>
<feBlend mode="normal" in2="BackgroundImageFix" result="effect1_dropShadow_1_4"/>
<feColorMatrix in="SourceAlpha" type="matrix" values="0 0 0 0 0 0 0 0 0 0 0 0 0 0 0 0 0 0 127 0" result="hardAlpha"/>
<feOffset dy="4"/>
<feGaussianBlur stdDeviation="2"/>
<feComposite in2="hardAlpha" operator="out"/>
<feColorMatrix type="matrix" values="0 0 0 0 0 0 0 0 0 0 0 0 0 0 0 0 0 0 0.25 0"/>
<feBlend mode="normal" in2="effect1_dropShadow_1_4" result="effect2_dropShadow_1_4"/>
<feColorMatrix in="SourceAlpha" type="matrix" values="0 0 0 0 0 0 0 0 0 0 0 0 0 0 0 0 0 0 127 0" result="hardAlpha"/>
<feOffset dy="4"/>
<feGaussianBlur stdDeviation="2"/>
<feComposite in2="hardAlpha" operator="out"/>
<feColorMatrix type="matrix" values="0 0 0 0 0 0 0 0 0 0 0 0 0 0 0 0 0 0 0.25 0"/>
<feBlend mode="normal" in2="effect2_dropShadow_1_4" result="effect3_dropShadow_1_4"/>
<feColorMatrix in="SourceAlpha" type="matrix" values="0 0 0 0 0 0 0 0 0 0 0 0 0 0 0 0 0 0 127 0" result="hardAlpha"/>
<feOffset dy="4"/>
<feGaussianBlur stdDeviation="2"/>
<feComposite in2="hardAlpha" operator="out"/>
<feColorMatrix type="matrix" values="0 0 0 0 0 0 0 0 0 0 0 0 0 0 0 0 0 0 0.25 0"/>
<feBlend mode="normal" in2="effect3_dropShadow_1_4" result="effect4_dropShadow_1_4"/>
<feColorMatrix in="SourceAlpha" type="matrix" values="0 0 0 0 0 0 0 0 0 0 0 0 0 0 0 0 0 0 127 0" result="hardAlpha"/>
<feOffset dy="4"/>
<feGaussianBlur stdDeviation="2"/>
<feComposite in2="hardAlpha" operator="out"/>
<feColorMatrix type="matrix" values="0 0 0 0 0 0 0 0 0 0 0 0 0 0 0 0 0 0 0.25 0"/>
<feBlend mode="normal" in2="effect4_dropShadow_1_4" result="effect5_dropShadow_1_4"/>
<feColorMatrix in="SourceAlpha" type="matrix" values="0 0 0 0 0 0 0 0 0 0 0 0 0 0 0 0 0 0 127 0" result="hardAlpha"/>
<feOffset dy="4"/>
<feGaussianBlur stdDeviation="2"/>
<feComposite in2="hardAlpha" operator="out"/>
<feColorMatrix type="matrix" values="0 0 0 0 0 0 0 0 0 0 0 0 0 0 0 0 0 0 0.25 0"/>
<feBlend mode="normal" in2="effect5_dropShadow_1_4" result="effect6_dropShadow_1_4"/>
<feColorMatrix in="SourceAlpha" type="matrix" values="0 0 0 0 0 0 0 0 0 0 0 0 0 0 0 0 0 0 127 0" result="hardAlpha"/>
<feOffset dy="4"/>
<feGaussianBlur stdDeviation="2"/>
<feComposite in2="hardAlpha" operator="out"/>
<feColorMatrix type="matrix" values="0 0 0 0 0 0 0 0 0 0 0 0 0 0 0 0 0 0 0.25 0"/>
<feBlend mode="normal" in2="effect6_dropShadow_1_4" result="effect7_dropShadow_1_4"/>
<feBlend mode="normal" in="SourceGraphic" in2="effect7_dropShadow_1_4" result="shape"/>
</filter>
</defs>
</svg>
